<svg xmlns="http://www.w3.org/2000/svg" viewBox="0 0 1200 720" role="img" aria-labelledby="title desc">
  <title id="title">Family Calendar cover</title>
  <desc id="desc">Smart family planner cover art for the Family Calendar project.</desc>
  <defs>
    <linearGradient id="bg" x1="0%" y1="0%" x2="100%" y2="100%">
      <stop offset="0%" stop-color="#081d27" />
      <stop offset="52%" stop-color="#0d4f67" />
      <stop offset="100%" stop-color="#1db3b0" />
    </linearGradient>
  </defs>

  <rect width="1200" height="720" fill="url(#bg)" />
  <circle cx="980" cy="140" r="110" fill="#baf8ec" opacity="0.14" />
  <rect x="74" y="74" width="520" height="572" rx="30" fill="rgba(5, 19, 27, 0.72)" stroke="rgba(186, 248, 236, 0.2)" />
  <text x="122" y="188" fill="#a9f3ea" font-size="34" font-family="'Trebuchet MS', 'Segoe UI', sans-serif" letter-spacing="8">HOUSEHOLD HUB</text>
  <text x="122" y="292" fill="#f0fffd" font-size="88" font-weight="700" font-family="'Trebuchet MS', 'Segoe UI', sans-serif">Family</text>
  <text x="122" y="370" fill="#f0fffd" font-size="88" font-weight="700" font-family="'Trebuchet MS', 'Segoe UI', sans-serif">Calendar</text>
  <text x="122" y="440" fill="#cbfbf5" font-size="28" font-family="'Trebuchet MS', 'Segoe UI', sans-serif">One bright, shared view of everything the week is carrying.</text>
  <g transform="translate(122 510)">
    <rect x="0" y="0" width="150" height="46" rx="23" fill="#57d6cb" opacity="0.16" />
    <rect x="168" y="0" width="124" height="46" rx="23" fill="#57d6cb" opacity="0.12" />
    <rect x="310" y="0" width="172" height="46" rx="23" fill="#57d6cb" opacity="0.12" />
    <text x="24" y="30" fill="#efffff" font-size="22" font-family="'Trebuchet MS', 'Segoe UI', sans-serif">Family Hub</text>
    <text x="194" y="30" fill="#efffff" font-size="22" font-family="'Trebuchet MS', 'Segoe UI', sans-serif">Events</text>
    <text x="336" y="30" fill="#efffff" font-size="22" font-family="'Trebuchet MS', 'Segoe UI', sans-serif">Smart Display</text>
  </g>
  <g transform="translate(706 96)">
    <rect x="0" y="0" width="406" height="526" rx="36" fill="rgba(6, 19, 28, 0.42)" stroke="rgba(198, 255, 248, 0.16)" />
    <rect x="38" y="46" width="330" height="62" rx="20" fill="#f3fffc" opacity="0.92" />
    <circle cx="90" cy="77" r="14" fill="#25bcb2" />
    <circle cx="320" cy="77" r="18" fill="#d6fffa" stroke="#0b6671" stroke-width="6" />
    <line x1="320" y1="77" x2="320" y2="64" stroke="#0b6671" stroke-width="6" stroke-linecap="round" />
    <line x1="320" y1="77" x2="332" y2="84" stroke="#0b6671" stroke-width="6" stroke-linecap="round" />
    <g fill="#e9fffb">
      <rect x="40" y="140" width="100" height="92" rx="18" />
      <rect x="154" y="140" width="100" height="92" rx="18" />
      <rect x="268" y="140" width="100" height="92" rx="18" />
      <rect x="40" y="246" width="100" height="92" rx="18" />
      <rect x="154" y="246" width="214" height="92" rx="18" />
      <rect x="40" y="352" width="214" height="92" rx="18" />
      <rect x="268" y="352" width="100" height="92" rx="18" />
    </g>
    <rect x="57" y="160" width="66" height="16" rx="8" fill="#30afa9" />
    <rect x="171" y="160" width="66" height="16" rx="8" fill="#2d7cff" />
    <rect x="285" y="160" width="66" height="16" rx="8" fill="#f29d38" />
    <rect x="171" y="266" width="180" height="16" rx="8" fill="#ff6f8f" />
    <rect x="57" y="372" width="180" height="16" rx="8" fill="#7258ff" />
    <rect x="285" y="372" width="50" height="16" rx="8" fill="#13a39d" />
  </g>
</svg>
