<svg width="1200" height="720" viewBox="0 0 1200 720" fill="none" xmlns="http://www.w3.org/2000/svg">
  <defs>
    <linearGradient id="bg" x1="120" y1="60" x2="1080" y2="660" gradientUnits="userSpaceOnUse">
      <stop stop-color="#061A2B"/>
      <stop offset="1" stop-color="#0F6A8B"/>
    </linearGradient>
    <radialGradient id="glow" cx="0" cy="0" r="1" gradientUnits="userSpaceOnUse" gradientTransform="translate(600 360) rotate(90) scale(260 420)">
      <stop stop-color="#58E7FF" stop-opacity="0.4"/>
      <stop offset="1" stop-color="#58E7FF" stop-opacity="0"/>
    </radialGradient>
  </defs>

  <rect width="1200" height="720" rx="32" fill="url(#bg)"/>
  <rect x="28" y="28" width="1144" height="664" rx="26" stroke="#FFFFFF" stroke-opacity="0.14" stroke-width="2"/>
  <rect x="0" y="0" width="1200" height="720" fill="url(#glow)"/>

  <g opacity="0.18" stroke="#B8F6FF" stroke-width="2">
    <path d="M0 180H1200"/>
    <path d="M0 360H1200"/>
    <path d="M0 540H1200"/>
    <path d="M300 0V720"/>
    <path d="M600 0V720"/>
    <path d="M900 0V720"/>
  </g>

  <g opacity="0.35" stroke="#7EEBFF" stroke-width="3">
    <circle cx="600" cy="360" r="82"/>
    <circle cx="600" cy="360" r="138"/>
    <circle cx="600" cy="360" r="208"/>
  </g>

  <g fill="#E9FDFF">
    <path d="M588 292C645 292 692 338 692 396C692 452 646 500 592 500H436C402 500 374 472 374 438C374 404 402 376 436 376H480C489 329 533 292 588 292Z" opacity="0.92"/>
    <circle cx="730" cy="262" r="10" opacity="0.8"/>
    <circle cx="772" cy="224" r="6" opacity="0.7"/>
  </g>

  <g fill="#061A2B" opacity="0.95">
    <rect x="502" y="334" width="196" height="76" rx="38"/>
    <rect x="662" y="324" width="40" height="22" rx="11"/>
    <circle cx="542" cy="410" r="12"/>
    <circle cx="618" cy="410" r="12"/>
  </g>

  <g stroke="#7EEBFF" stroke-width="5" stroke-linecap="round">
    <path d="M600 220V250"/>
    <path d="M600 470V500"/>
    <path d="M460 360H490"/>
    <path d="M710 360H740"/>
  </g>

  <text x="600" y="596" text-anchor="middle" fill="#F7FCFF" font-family="Inter, Arial, sans-serif" font-size="62" font-weight="700">
    SONAR
  </text>
  <text x="600" y="640" text-anchor="middle" fill="#C7EEF5" font-family="Inter, Arial, sans-serif" font-size="26">
    Web port preview fallback
  </text>
</svg>
