<svg xmlns="http://www.w3.org/2000/svg" viewBox="0 0 1200 720" role="img" aria-labelledby="title desc">
  <title id="title">Sonar cover</title>
  <desc id="desc">Underwater tactical cover art for the Sonar project.</desc>
  <defs>
    <linearGradient id="sea" x1="0%" y1="0%" x2="100%" y2="100%">
      <stop offset="0%" stop-color="#041525" />
      <stop offset="60%" stop-color="#0b4464" />
      <stop offset="100%" stop-color="#14a0b7" />
    </linearGradient>
    <radialGradient id="sweep" cx="50%" cy="50%" r="60%">
      <stop offset="0%" stop-color="#9ef9ff" stop-opacity="0.5" />
      <stop offset="100%" stop-color="#9ef9ff" stop-opacity="0" />
    </radialGradient>
  </defs>

  <rect width="1200" height="720" fill="url(#sea)" />
  <rect x="74" y="74" width="520" height="572" rx="30" fill="rgba(4, 17, 29, 0.72)" stroke="rgba(158, 249, 255, 0.2)" />
  <text x="122" y="192" fill="#97edf0" font-size="34" font-family="'Trebuchet MS', 'Segoe UI', sans-serif" letter-spacing="8">TACTICAL HUNT</text>
  <text x="122" y="296" fill="#edfeff" font-size="94" font-weight="700" font-family="'Trebuchet MS', 'Segoe UI', sans-serif">Sonar</text>
  <text x="122" y="378" fill="#c3fbff" font-size="28" font-family="'Trebuchet MS', 'Segoe UI', sans-serif">A tense underwater duel where every ping can reveal too much.</text>
  <g transform="translate(122 474)">
    <rect x="0" y="0" width="94" height="46" rx="23" fill="#63dae0" opacity="0.18" />
    <rect x="112" y="0" width="120" height="46" rx="23" fill="#63dae0" opacity="0.12" />
    <rect x="250" y="0" width="104" height="46" rx="23" fill="#63dae0" opacity="0.12" />
    <text x="24" y="30" fill="#efffff" font-size="22" font-family="'Trebuchet MS', 'Segoe UI', sans-serif">Game</text>
    <text x="138" y="30" fill="#efffff" font-size="22" font-family="'Trebuchet MS', 'Segoe UI', sans-serif">Web App</text>
    <text x="276" y="30" fill="#efffff" font-size="22" font-family="'Trebuchet MS', 'Segoe UI', sans-serif">Live</text>
  </g>
  <g transform="translate(708 108)">
    <circle cx="210" cy="246" r="180" fill="url(#sweep)" />
    <circle cx="210" cy="246" r="180" fill="none" stroke="rgba(157, 249, 255, 0.26)" stroke-width="2" />
    <circle cx="210" cy="246" r="126" fill="none" stroke="rgba(157, 249, 255, 0.26)" stroke-width="2" />
    <circle cx="210" cy="246" r="72" fill="none" stroke="rgba(157, 249, 255, 0.26)" stroke-width="2" />
    <path d="M210 246L338 134A180 180 0 0 1 390 286Z" fill="#8dfcff" opacity="0.28" />
    <circle cx="210" cy="246" r="12" fill="#cfffff" />
    <path d="M74 474c34-28 82-44 136-44 53 0 100 14 140 42 29-15 67-24 106-24 38 0 76 9 108 26v60H74Z" fill="#06283a" opacity="0.92" />
    <path d="M182 420h138c24 0 43 19 43 43v11H139v-11c0-24 19-43 43-43Z" fill="#11394f" />
    <rect x="176" y="392" width="34" height="30" rx="10" fill="#11394f" />
    <rect x="318" y="432" width="70" height="22" rx="11" fill="#11394f" />
  </g>
</svg>
